<?xml version="1.0" encoding="UTF-8"?>
<svg viewBox="0 0 511.13235 500.00424" xmlns="http://www.w3.org/2000/svg" xmlns:xlink="http://www.w3.org/1999/xlink">
 <defs>
  <linearGradient id="b">
   <stop stop-color="#ffb142" offset="0"/>
   <stop stop-color="#c87600" offset="1"/>
  </linearGradient>
  <linearGradient id="e" x1="29.741" x2="29.741" y1="375.15" y2="379.22" gradientUnits="userSpaceOnUse" xlink:href="#b"/>
  <linearGradient id="d" x1="29.741" x2="29.741" y1="375.15" y2="379.22" gradientUnits="userSpaceOnUse" xlink:href="#b"/>
  <linearGradient id="a" x1="29.741" x2="29.741" y1="375.15" y2="379.22" gradientUnits="userSpaceOnUse" xlink:href="#b"/>
  <linearGradient id="c" x1="27.227" x2="29.68" gradientUnits="userSpaceOnUse" xlink:href="#b"/>
 </defs>
 <g transform="matrix(4.6798 0 0 4.6798 123.22 -1288.1)">
  <path d="m26.851 374.71a4.1181 6.6537 0 0 1 -8.2362 0 4.1181 6.6537 0 1 1 8.2362 0z" fill="url(#e)" stroke="#000" stroke-linecap="round" stroke-linejoin="round" stroke-width="1.445"/>
  <path d="m16.881 374.71a4.1181 6.6537 0 0 1 -8.2362 0 4.1181 6.6537 0 1 1 8.2362 0z" fill="url(#d)" stroke="#000" stroke-linecap="round" stroke-linejoin="round" stroke-width="1.445"/>
  <path d="m21.794 374.71a4.1181 6.6537 0 0 1 -8.2362 0 4.1181 6.6537 0 1 1 8.2362 0z" fill="url(#a)" stroke="#000" stroke-linecap="round" stroke-linejoin="round" stroke-width="1.445"/>
  <path d="m49.104 374.71a4.1181 6.6537 0 0 1 -8.2362 0 4.1181 6.6537 0 1 1 8.2362 0z" fill="url(#a)" stroke="#000" stroke-linecap="round" stroke-linejoin="round" stroke-width="1.445"/>
  <path d="m39.134 374.71a4.1181 6.6537 0 0 1 -8.2362 0 4.1181 6.6537 0 1 1 8.2362 0z" fill="url(#a)" stroke="#000" stroke-linecap="round" stroke-linejoin="round" stroke-width="1.445"/>
  <path d="m44.046 374.71a4.1181 6.6537 0 0 1 -8.2362 0 4.1181 6.6537 0 1 1 8.2362 0z" fill="url(#a)" stroke="#000" stroke-linecap="round" stroke-linejoin="round" stroke-width="1.445"/>
  <path d="m12.763 368.05c-1.678 0-3.1154 1.6271-3.7569 3.9556 5.4825 1.4664 11.506 2.3218 17.836 2.4384-0.0862-3.5502-1.8908-6.3939-4.1091-6.3939-0.95394 0-1.8303 0.52812-2.5287 1.4088-0.69841-0.88071-1.5747-1.4088-2.5287-1.4088-0.92067 0-1.7704 0.49268-2.4564 1.3185-0.68605-0.82584-1.5358-1.3185-2.4564-1.3185zm22.252 0c-2.2126 0-4.0143 2.8294-4.1091 6.3668 6.3233-0.20355 12.316-1.1512 17.755-2.7002-0.67832-2.1719-2.0683-3.6666-3.6756-3.6666-0.95394 0-1.8303 0.52812-2.5287 1.4088-0.6984-0.88071-1.5747-1.4088-2.5287-1.4088-0.92066 0-1.7704 0.49268-2.4564 1.3185-0.68604-0.82584-1.5358-1.3185-2.4564-1.3185z" fill-opacity=".3137"/>
  <path d="m76.17 323.82a47.846 47.846 0 0 1 -95.693 0 47.846 47.846 0 1 1 95.693 0z" fill="#784421" stroke="#000" stroke-linecap="round" stroke-width="1.445"/>
  <path d="m51.974 347.74c-7.6582-1.4229-0.64948 6.2512-1.8238 9.0259-4.6421-2.2826-2.8733 5.2741-4.9725 7.3733-3.9776-0.21272-4.5985 3.7982-7.3733 4.9725-3.3527-1.8601-5.825 1.8238-9.0259 1.8238s-5.0952-3.5394-9.0259-1.8238c-2.7748-1.1743-3.3956-5.0408-7.3733-4.9725-2.0992-2.0992-1.7753-10.089-4.9725-7.3733-1.1743-2.7748 4.245-11.027-1.8238-9.0259 0-3.201 6.4293-9.1411 1.8238-9.0259 1.1743-2.7748 7.0637-4.8406 4.9725-7.3733 4.1984-4.1984 9.9972-6.7963 16.399-6.7963s12.201 2.5979 16.399 6.7963c-3.1026 1.5212 3.7983 4.5985 4.9725 7.3733-5.1835-0.25964 1.8238 5.825 1.8238 9.0259z" fill="#fff" stroke="#000" stroke-linecap="round" stroke-linejoin="round" stroke-width="1.445"/>
  <path d="m70.597 301.41c0.57238 2.9571 0.87601 6.0068 0.87601 9.1303 0 1.0779-0.0381 2.1458-0.10838 3.206-1.0613-0.0528-2.19 6e-3 -3.3956 0.18062-10.177 2.167-5.8299 14.93-8.4801 28.285-8.7687 9.9207-21.59 16.174-35.862 16.174-8.7776 0-17.002-2.3718-24.077-6.5023-6.843-16.022 2.334-33.426-9.7263-36.431-13.325-2.4059-18.487 9.9575-9.8708 28.484 4.7571 10.229 12.635 15.253 18.432 17.204 8.1967 6.5891 18.609 10.53 29.938 10.53 13.279 0 25.303-5.4155 33.974-14.161 5.0439-2.5193 10.653-7.1077 14.549-14.784 7.2862-14.354 5.891-25.165-1.5804-28.158-0.91606-4.6632-2.5044-9.0864-4.669-13.158z" fill-opacity=".3137" fill-rule="evenodd"/>
  <path d="m-10.215 313.12c13.904 4.9995-4.0931 27.206 10.929 46.583 2.7767 3.5815-16.723 0.6042-23.617-19.242-6.7041-19.3-0.32724-31.078 12.688-27.34z" fill="#784421" fill-rule="evenodd" stroke="#000" stroke-width="1.4447"/>
  <path d="m66.784 313.12c-13.904 4.9995 4.0931 27.206-10.929 46.583-2.7767 3.5815 16.723 0.6042 23.617-19.242 6.7041-19.3 0.32724-31.078-12.688-27.34z" fill="#784421" fill-rule="evenodd" stroke="#000" stroke-width="1.445"/>
  <path d="m15.044 286.89c-9.0265 0-16.358 8.4765-16.358 18.921s7.3314 18.921 16.358 18.921c5.3046 0 10.012-2.9306 13-7.4645 2.9881 4.5372 7.7056 7.4645 13.012 7.4645 9.0264 0 16.358-8.4765 16.358-18.921s-7.3314-18.921-16.358-18.921c-5.3062 0-10.024 2.9282-13.012 7.4645-2.9883-4.5329-7.6962-7.4645-13-7.4645z" fill="#fff" stroke="#000" stroke-linecap="round" stroke-width="1.445"/>
  <path d="m28.54 318.94c-2.6842 0-5.6017 2.9845-5.485 4.8694s4.7848 9.7388 5.8351 9.7388 5.1349-7.6968 5.0182-9.8959-3.6178-4.8694-5.3683-4.7123z" fill-opacity=".3137" fill-rule="evenodd"/>
  <path d="m27.011 307.09a4.7357 4.7357 0 0 1 -9.4714 0 4.7357 4.7357 0 1 1 9.4714 0z" stroke="#000" stroke-linecap="round" stroke-width="1.445"/>
  <path d="m-5.185 310.51c-3.8692-1.332-7.8666 2.1917-8.6308 4.0979 3.9049-0.99768 5.6988-1.279 6.7099-0.39902-0.43544 0.97431-5.0308 1.9483-6.4553 8.3435 3.5918-2.4901 6.4455-5.3682 7.5925-4.1855-0.83275 1.4547-1.7916 4.1896-1.1454 6.9013 2.0638-2.7236 4.1727-5.6002 6.1097-5.678" fill="#784421" fill-rule="evenodd" stroke="#000" stroke-linecap="round" stroke-linejoin="round" stroke-width="1.445"/>
  <path d="m32.045 290.07c3.8366-9.2939 10.307-10.552 10.307-10.552s-3.5989 4.8479-0.33927 3.4993c5.0473-2.0882 21.095 4.4557 21.095 4.4557s-21.262-4.9492-31.063 2.5969z" fill="#fff" fill-rule="evenodd" stroke="#000" stroke-linejoin="round" stroke-width="1.445"/>
  <path d="m23.248 289.21c-3.8366-9.2939-10.307-10.552-10.307-10.552s3.5989 4.8479 0.33927 3.4993c-5.0473-2.0882-21.095 4.4557-21.095 4.4557s21.262-4.9492 31.063 2.5969z" fill="#fff" fill-rule="evenodd" stroke="#000" stroke-linejoin="round" stroke-width="1.445"/>
  <path d="m39.004 307.09a4.7357 4.7357 0 0 1 -9.4714 0 4.7357 4.7357 0 1 1 9.4714 0z" stroke="#000" stroke-linecap="round" stroke-width="1.445"/>
  <path d="m21.794 305.43a1.2282 1.2282 0 0 1 -2.4564 0 1.2282 1.2282 0 1 1 2.4564 0z" fill="#fff"/>
  <path d="m33.787 305.43a1.2282 1.2282 0 0 1 -2.4564 0 1.2282 1.2282 0 1 1 2.4564 0z" fill="#fff"/>
  <path d="m71.338 312.43-0.36124 9e-3c4.6851 3.7755 6.668 12.512 4.2716 24.664-3.1856 16.153-15.483 23.122-19.57 23.489 1.3271 1.8861 17.62-2.3483 23.797-20.13 5.8661-16.888 1.711-28.018-8.1369-28.032z" fill-opacity=".3137" fill-rule="evenodd"/>
  <path d="m-25.149 321.73c-0.99753 4.77-0.37526 11.176 2.2487 18.73 6.8938 19.847 26.393 22.826 23.616 19.245-1.1874-1.5316-2.1733-3.0848-2.9802-4.6419-5.4768-1.3124-15.619-7.0445-20.202-20.238-1.6991-4.8916-2.5587-9.2998-2.6822-13.095zm20.6 1.8333c-0.25514 2.4668-0.53643 5.0897-0.65926 7.8389 0.28705-2.8294 0.60092-5.4738 0.65926-7.8389z" fill-opacity=".3137" fill-rule="evenodd"/>
  <path d="m61.676 310.51c3.8692-1.332 7.8666 2.1917 8.6308 4.0979-3.9049-0.99768-5.6988-1.279-6.7099-0.39902 0.43543 0.97431 5.0308 1.9483 6.4553 8.3435-3.5918-2.4901-6.4455-5.3682-7.5925-4.1855 0.83275 1.4547 1.7916 4.1896 1.1454 6.9013-2.0638-2.7236-4.1727-5.6002-6.1097-5.678" fill="#784421" fill-rule="evenodd" stroke="#000" stroke-linecap="round" stroke-linejoin="round" stroke-width="1.445"/>
  <g transform="translate(-100.51 15.959)">
   <path d="m146.13435,295.67053c-.18036.0168-.41207.14066-.67773.39239-.88322.75571-1.70039,1.52325-2.72542,2.22639-2.1154,1.89457-2.65,5.2946-1.39504,7.81932 .29066.4109.56864.83074.84487,1.26014 .38148.56997-.73136,1.43734-1.26193,2.00154-1.20558-.13635-2.48085-.46624-3.84151-1.09001-.16867-.088-.3467-.18247-.53824-.26762-.0135-.006-.0465-.02-.032-.0305 5.49037-4.03068-.47633-2.54195-2.62396-1.15229-.0194.0125-.0412.0101-.0625.002-3.13564-1.13417-6.52943-1.36724-10.86889-.84844-1.92133.2573-2.2125.42402-4.03492,1.13439-.0382.015-.16389.0555-.1562.004 .6802-4.82266-.68206-2.08049-3.24993,1.27069-.0314.0408-.0804.0199-.12417.0344-.40037.13254-.80172.26876-1.2096.37469-7.71261,2.14101-16.62838,2.13059-24.33426.68253l-1.48319,3.13255 1.53712.21091c3.23574.28504 6.43506.50096 9.64178.53584l.0312-.00079c.0643.001.12838-.0103.18744-.005l.0312-.0008c1.50803.21104 7.62328,4.60419 5.15696-.0376-.0349-.0657.12548-.034.18664-.036 6.299-.21711 10.33829-1.28594 16.43038-4.16984 1.63721-.5695 3.772-.67484 5.95726-.52691 .0531.004.11701-.0186.15699.0273 2.05897,2.37062 4.71018,6.19871 3.44992.44352-.0103-.049.0534-.0397.0929-.0336 2.21514.29196 2.46547.56686 4.06178,1.14692 4.31577,1.79358 7.20151,1.76272 9.56557,1.2255 .29676.42364.51446.71943.72071,1.29457 .21863.60969.42863,1.13397.18625,2.40228-.31138,1.56481.44498,3.32705 1.90245,4.73433 .40417.3825 1.05829.79772 1.77809,1.08006 .93822.47405 1.81126.30907 2.75309.0862 1.11773-.27197 2.48381-.34536 3.46921-.0259 .69433.51163 1.1784.4596.8387-.20893-1.0029-1.27142-1.94727-2.37981-2.22699-3.97581-.46642-2.01985-1.94943-3.41262-3.86101-4.30931-.57277-.25271-1.11435-.31469-1.6981-.39437-1.12853-.20759-1.31849.17917-1.87578-1.23388 2.9881-1.02175 5.45881-2.31819 9.87179-.25152l-.25748-2.74433c-2.86443-.85901-2.19599-.94218-5.61184-.63852-.0163.003-.0317.022-.0312.00079 2.10463-3.52775-.31903-3.60671-2.32945.59078-.008.0216-.0431.0285-.0617.0328-1.6824.7774-3.42798,1.4087-5.3054,1.57314 .35472-.60837.91818-1.66867 1.14413-1.7172 4.82952-2.38779 4.16479-6.91244 2.43053-11.34683-.0678-.46092-.24798-.70171-.54859-.67375z" fill="#89a02c" stroke="#060606" stroke-linecap="round" stroke-linejoin="round" stroke-width="1.145"/>
   <path d="m146.21 311.91c1.9023 3.4737 4.7852 6.2686 8.7636 8.3055-3.3742-2.4152-6.5815-4.9606-8.7636-8.3055z" fill="#2d4320"/>
   <path d="m142.96 307.75c1.328-2.4311 2.283-6.043 2.8214-10.974-0.75115 4.2023-1.572 8.204-2.8214 10.974z" fill="#2d4320"/>
  </g>
  <g transform="matrix(1.198 .05757 -.05757 1.198 -605.45 77.885)">
   <path d="m580.48254,179.59281c-.006-.43807-.50546-.71049-.87233-1.02811-.11119-.23556-.46458-.65805-.77441-1.04591-.28141-.49985-.57725-.96819-1.33076-.88569 .36783-.24926.63096-.58812.55633-.98804-.11304-.60581.40752-.80323.5519-1.13493 .87573-2.01213-1.24736-2.23505-2.05178-2.69267l-1.88709-.61865 .0935-.0579c-.0178-2.49655-1.668-1.84424-2.67041-3.85874-.55313-.79221-.99983-1.73091-2.31882-1.45093-3.11632,1.65409-6.03814.40532-5.47879,5.26072 .0458.90182.0838,1.56692.12463,2.07847-.0386-.055-.0762-.11295-.11573-.16468-1.17175-1.3857-2.42919-.63962-3.14218.84563-.56309,1.26045-.67842,3.1063-1.14828,3.77863-.98372,1.25051-.0846,1.86557.17357,2.69267 .70857,1.89986 1.53555,4.72533 3.59617,4.08127-.0841.16033-.17302.34624-.26704.56079-.20907.58826-.58399,2.379.87678,3.08878 .71346.41352 1.81412,1.77111 2.02062,2.28765 .40605.64715.78862,3.40354 2.22088,2.39447 .91959-.50962 1.32447-1.10897 1.79808-1.54439 .17311-.15914.3511-.24039.62755-.32045 2.3806-.67241 2.45728-1.89474 2.59029-3.10657 .0884.0388.17501.0753.26259.11126 .74323.2956 1.50087.55496 2.23425.86789 .69814.216 1.48938-.3289 1.51324-1.09933 .0877-.51997.33287-.74427.79222-.57413 .96266.36519.823-.55241.79222-1.0014-.12283-.9093-.63367-1.89552-1.264-2.90631 .23333-.27664.42959-.61223.57414-1.07706l.0801.0133c.74957.12605 1.1815-.24531 1.05481-1.05927-.13634-.27376-.0167-.45509.27149-.56968 .3803-.36267.51923-.64187.51629-.87678z" stroke="#000" stroke-width="2.526"/>
   <path d="m573.74 187.17c-0.25116 1.3875 0.1022 2.9201-2.6689 3.7028-0.27644 0.0801-0.45405 0.15838-0.62716 0.31753-0.4736 0.43541-0.8824 1.0363-1.802 1.5459-1.4323 1.0091-1.8121-1.7488-2.2182-2.396-0.2065-0.51655-1.3074-1.8726-2.0209-2.2861-1.4608-0.70978-1.0847-2.503-0.87561-3.0913 0.76526-1.7461 1.1624-1.5511 1.7793-1.7762l8.4335 3.9834z" fill="#e52e33" stroke="#6e4747" stroke-width=".04242"/>
   <path d="m573.86 186.89c1.3893-1.8094 0.89084-3.8207 0.22862-5.3991-1.853-2.8568-4.442-0.6776-6.8115 0-2.0596-0.40734-3.5205 3.0327-2.1809 4.8931 0.53872 0.69567 2.226 1.6994 3.0612 2.1519 1.0992 1.1906 2.8358 2.3485 4.4286 0.16536 0.6373-0.93751 0.53445-1.2532 1.274-1.8112v-1e-5z" fill="#b30e24" stroke="#6e4747" stroke-width=".04242"/>
   <path d="m565.66 183.13c-3.5001 3.4601-4.5786-0.40761-5.4713-2.8012-0.25819-0.8271-1.1597-1.444-0.17593-2.6946 0.46985-0.67233 0.58488-2.5158 1.148-3.7762 0.71301-1.4852 1.971-2.231 3.1428-0.84529 1.043 1.366 1.766 3.9428 1.7957 3.2608l-0.4392 6.8565z" fill="#e52e33" stroke="#6e4747" stroke-width=".04242"/>
   <path d="m578.21 177.44v5.1586h-4.9196l0.61743-5.9553 4.3021 0.79669z" fill="#800000" stroke="#6e4747" stroke-linejoin="round" stroke-width=".04242"/>
   <path d="m563.76 173.53c1.2989-0.0704 2.0947 0.80892 2.6332 1.626-2.2575 0.29699-3.4019 1.3888-3.4148 2.4472-0.0193 1.5894-0.43308 2.4532-1.9217-0.37621-0.15903-0.47582 0.0632-1.0157 0.11355-1.5525 0.038-1.7101 1.3563-1.7166 2.5897-2.1445z" fill="#b30e24" stroke="#6e4747" stroke-width=".04242"/>
   <path d="m565.65 176.64c-1.0021-2.6956-1.0876-0.41322-1.3484-5.5498-0.55937-4.8554 2.3642-3.6098 5.4806-5.2639 1.319-0.28 1.7658 0.66103 2.3189 1.4532 1.0024 2.0145 2.6543 1.3618 2.6721 3.8583l-9.1231 5.5021z" fill="#e52e33" stroke="#6e4747" stroke-width=".04242"/>
   <path d="m573.26 169.55c1.0562 1.8094 0.67726 3.8207 0.1738 5.3991-1.4087 2.8568-3.377 0.67761-5.1785 0-1.5658 0.40735-2.1617-3.8294-1.1432-5.6898 0.40957-0.69568 1.1775-0.90273 1.8125-1.3553 0.86348-0.60505 1.8742-1.1075 3.0337-6e-3 0.48452 0.93751 0.73946 1.0938 1.3017 1.6519z" fill="#b30e24" stroke="#6e4747" stroke-width=".04242"/>
   <path d="m569.75815,179.31848c-1.0021-2.69557-2.80576,1.06557-3.06663-4.07103-.42076-5.06642 2.27164-5.48494 3.48089-5.58179 .23568-.0189.5931-.38759.79855.29325 .0833.27586.15865.37583.55328.44717 1.11379.0483 3.20167.81983 5.03706,1.41099 .80442.45761 2.92693.68048 2.0512,2.69261-.14438.33169-.66215.53177-.5491,1.13758 .0964.51651-.37391.93233-.90031,1.18298l-7.40494,2.48824z" fill="#b30e24" stroke="#6e4747" stroke-width=".04242"/>
   <path d="m571.85157,172.5745c.78631,1.03622.5042,2.1881.1294,3.09203-1.04875,1.63604-2.51406.38806-3.85517,0-1.16569.23328-1.60927-2.19307-.85109-3.25849 .3049-.3984.87659-.51698 1.34931-.77613 .64283-.34651 1.39525-.63427 2.25847-.003 .3607.5369.5505.62642.96908.94604z" fill="#800000" stroke="#6e4747" stroke-width=".04242"/>
   <path d="m564.98 178.08 0.10699-0.4776c1.7806 2.8693 3.5652 5.7346 4.9796 8.97-1.8733 0.28487-7.556-3.6281-5.0866-8.4924z" fill="#e52e33" stroke="#6e4747" stroke-linejoin="round" stroke-width=".04242"/>
   <path d="m574.11 182.4 3.8241 0.67718c0.65339 1.0389 1.1884 2.0542 1.3145 2.9876 0.0308 0.449 0.17126 1.3662-0.7914 1.001-0.45934-0.17014-0.70575 0.0551-0.79347 0.57515-0.0239 0.77042-0.81665 1.316-1.5148 1.1-0.73339-0.31293-1.4892-0.5728-2.2324-0.86839-1.6166-0.66492-3.4346-1.8572-3.4514-1.7878l-1.1869-2.5808 4.8318-1.1039z" fill="#b30e24" stroke="#6e4747" stroke-linejoin="round" stroke-width=".04242"/>
   <path d="m572.96 177.5 2.7685 7.23c-2.3353 1.5624-3.9918 1.0396-5.5968 0.35851l-2.2108-3.7644c1.6797-1.2747 3.1128-3.5972 5.0391-3.8241z" fill="#e52e33" stroke="#6e4747" stroke-linejoin="round" stroke-width=".04242"/>
   <path d="m569.1 182.47c2.2125 0.0828 3.8866-2.0185 4.3139-1.2522 0.54487 0.97706 0.31472-1.2581 1.3965 1.5712 0.0662 1.9181-3.8863 1.1277-5.3032 0.92236-0.70285-0.17207-1.0466-0.8028-0.40712-1.2414z" fill="#b30e24" stroke="#6e4747" stroke-width=".04242"/>
   <path d="m574.09 174c-5.6441 5.5023-2.6821 9.179-5.2109 8.7013l-1.1306-2.3919c-2.4542-0.80449-2.6395-2.0914-1.9308-4.2289 0.26127-0.6727 1.1466-1.6389 1.7106-1.8564 0.79023-0.41376 3.5205-1.9706 6.4761-0.30984 0.0474 0 0.0857 0.0383 0.0857 0.0857z" fill="#e52e33" stroke="#6e4747" stroke-width=".04242"/>
   <path d="m566.62894,176.80458c1.36359,1.52127 3.75548,1.57285 3.43667,2.34-.42933,1.03305 1.18254-.53251-.36806,2.06967-.0316,4.40498-3.28375-2.31377-4.00983-3.59116-.0941-.22174-.0771-.30295-.0589-.52454 .0566-.68941.2812-.98932.6313-.71056 .14273.1198.24911.27489.36881.41659z" fill="#b30e24" stroke="#6e4747" stroke-width=".04242"/>
   <path d="m564.47018,180.61459c-.0106-1.17063.67119-1.82934 1.29833-2.261 .61769.0472 1.26056.47178 1.12008,1.76191-.0761.69916.1883,1.41848.59642,1.45915 1.18558.11817 1.81693.54443-.34269,1.70149-.36023.1126-.75603-.12118-1.155-.20043-1.27506-.14256-1.23746-1.32658-1.51714-2.46112z" fill="#b30e24" stroke="#6e4747" stroke-width=".04242"/>
   <path d="m569.69035,184.11416c.0688.27745.724,1.28388.7083,1.33492 1.41095,2.20141.94262,2.13378.30657,2.14197-.46029-.14529-.41017-.90541-.82555-1.17629-.76915-.0856-.80365-.72225-1.00723-1.23206-.19001-.51923-.34617-1.05076-.93583-1.42466-.4814-.17514-1.03114-.0632-1.33815-.97077-.0475,0 .0833-.5734.0833-.62088 .0737-.60846-.0163-1.10143-.57743-1.33555-.40501-.0475-.74679-1.17014-.47765-1.17014 .63622.20818-1.0383-1.31591-.70667-1.95275 .23958-.85248.90946-.8986 1.44269.0827 .41147.73045.4213,1.81275 1.35569,2.50664 .58142.43177.75412,1.23708.95145,1.9513 .153.60283.85456.45175 1.0205,1.8656z" fill="#e52e33" stroke="#6e4747" stroke-linejoin="round" stroke-width=".04242"/>
   <path d="m577.29888,176.19014c.14912.26831.20284.48892-.27799.44225-1.24044-.35955-2.43797-.29012-3.62579-.12357l.99585-1.75272c.94442.30374 1.81761.10892 2.90793,1.43404z" fill="#b30e24" stroke="#6e4747" stroke-linejoin="round" stroke-width=".04242"/>
   <path d="m575.85022,173.94395c-1.04934.72143-2.05151,1.64326-2.98345,2.86362-.27924.27168-.34421.58136-.42861.94093-.16421.53397-.49003.86397-1.08182,1.10943-.59575.36595-.49543.93674-.55363,1.46067-.11233.39313-.21356.78996-.43467,1.14684l-.32609.86033c-.2094,1.13513-.55441.72447-.95068-.27085-.15161-.63026-.1577-2.66488-.00084-3.6066 .0593-.62453.42934-1.13808 1.01401-1.57498 .35944-.18959 1.83033-.93611 1.9025-1.38139-.0734-.88567.74964-.8408 1.23554-1.13217 .61171-.4216 1.26982-.65758 1.9168-.93812 .70603-.32928 1.74088-.05.6913.52229z" fill="#e52e33" stroke="#6e4747" stroke-width=".04242"/>
   <path d="m578.75 181.17c-0.26075 2.1019-1.2141 2.3037-2.2108 3.3262-0.17199 0.3734-0.3693 0.61513-0.72669 0.0244-1.7513-1.1163-0.45034-2.6905-0.12976-3.0518 0.825-0.69186 2.0448-0.19918 3.0673-0.29876z" fill="#b30e24" stroke="#6e4747" stroke-linejoin="round" stroke-width=".04242"/>
   <path d="m573.59427,177.62419c.44278.39874.33901,1.03172.44814,1.57346 .0538.39859.24319.66182.42606.93147 .27474.41428.38185.73885.41171.9793-.0181.28922.004.44055.17622.66829 .2043.32807.28418.59439.25775.80733-.048.20897.21203.50009.55944.81449 .20908.18397.44439.34958.39709.71301 .0365.3072.18531.50217.40756.62366 .65572.48958.16677,1.00284-.14617,1.31399-.13189.10496-.31036.3615-.41606-.1874-.0175-.23129-.0692-.45013-.3749-.57667-.274-.27977-.729-.36469-.79214-1.03229-.0139-.14799-.0379-.20743-.12342-.376-.13423-.14277-.1776-.46723-.20697-.81972-.017-.25417-.34179-.68048-.76539-1.16067-.42504-.6652-1.02448-1.15599-.69258-2.57814 .18611-.50893.17704-1.09965-.39618-1.30793-.22992-.0431-.29421-.0778-.35089-.30497-.0678-.46512.75912-.35232 1.18073-.0812z" fill="#b30e24" stroke="#6e4747" stroke-linejoin="round" stroke-width=".04242"/>
   <path d="m579.2906,178.18187c.34277.72449 2.02939,1.00101.67719,2.29048-.28814.1146-.40773.2924-.2714.56617 .1267.81396-.30809,1.18678-1.05766,1.06073l-1.75812-.29244c-.87494-.19937-.79234-1.59664-.49143-2.71357 .28711-1.06569.426-1.01155 1.00928-.91137 .54557-.42574 1.19696-.32235 1.89214,0z" fill="#b30e24" stroke="#6e4747" stroke-linejoin="round" stroke-width=".04242"/>
   <path d="m578.83595,177.51999c.63929.80028 1.48211,1.7566-.0563.88727-1.62194-1.37877-2.97457-1.241-4.85886-1.5492-.43594-.14555-.63287-.28191-.0983-.39014 1.22519.035 3.16864.17319 3.67556.1648 .76026-.0873 1.05542.38541 1.33795.88727z" fill="#b30e24" stroke="#6e4747" stroke-linejoin="round" stroke-width=".04242"/>
   <path d="m578.21626,178.32276c.24358.35171-.014.63463-.13591.87271-.12477.30314-.23619.63301-.2866,1.08491-.0213.26619-.26542.41316-.22822-.10335-.0259-.46584.0494-1.04551-.10978-1.36135-.14273-.26374-.0254-.51234.0422-.57742 .2844-.1968.50826-.0907.71826.0845z" fill="#b30e24" stroke="#6e4747" stroke-linejoin="round" stroke-width=".04242"/>
   <path d="m577.75625,177.58451c.72442-.20359.3386.32449.0258.51481l-2.33095,1.45101c-.33204.25701-1.03989.29271-.61169-.0696 .65901-.5447 2.43727-2.59151 1.65482-2.13488-.19621.11451-1.13399-.43098-.88121-.70213 .0896-.0372 1.22505.24079 1.34992.48853 .0916.18169.41781.0108.5386.25806 .0622.19127.0481.23261.25472.19422z" fill="#b30e24" stroke="#6e4747" stroke-linejoin="round" stroke-width=".04242"/>
  </g>
  <path d="m27.927 315.87c-2.6841 0-5.6017 2.6894-5.485 4.388s4.7848 8.7759 5.8351 8.7759 5.1349-6.9358 5.0182-8.9175-3.6178-4.388-5.3683-4.2464z" fill="url(#c)" fill-rule="evenodd" stroke="#000" stroke-width="1.445"/>
 </g>
</svg>
